<mxfile host="app.diagrams.net" modified="2021-08-13T07:21:46.729Z" agent="5.0 (Macintosh; Intel Mac OS X 10_15_7) AppleWebKit/537.36 (KHTML, like Gecko) Chrome/92.0.4515.131 Safari/537.36" etag="KmI6LMIUk5p4Vq21C95I" version="14.9.3" type="github">
  <diagram id="KX55tkXt4Usffu8zQ36v" name="Page-1">
    <mxGraphModel dx="946" dy="515" grid="1" gridSize="10" guides="1" tooltips="1" connect="1" arrows="1" fold="1" page="1" pageScale="1" pageWidth="827" pageHeight="1169" math="0" shadow="0">
      <root>
        <mxCell id="0" />
        <mxCell id="1" parent="0" />
        <mxCell id="tAiFyAOmSP42KVRrfz_7-1" value="" style="shape=image;verticalLabelPosition=bottom;labelBackgroundColor=#ffffff;verticalAlign=top;aspect=fixed;imageAspect=0;image=https://i.loli.net/2021/08/13/6gSBdHnD7qwvKIF.png;" vertex="1" parent="1">
          <mxGeometry x="30" y="20" width="730" height="292" as="geometry" />
        </mxCell>
        <mxCell id="tAiFyAOmSP42KVRrfz_7-2" value="0x21" style="rounded=0;whiteSpace=wrap;html=1;" vertex="1" parent="1">
          <mxGeometry x="70" y="280" width="60" height="40" as="geometry" />
        </mxCell>
        <mxCell id="tAiFyAOmSP42KVRrfz_7-3" value="0x29" style="rounded=0;whiteSpace=wrap;html=1;" vertex="1" parent="1">
          <mxGeometry x="149" y="283" width="60" height="40" as="geometry" />
        </mxCell>
        <mxCell id="tAiFyAOmSP42KVRrfz_7-4" value="0x1A" style="rounded=0;whiteSpace=wrap;html=1;" vertex="1" parent="1">
          <mxGeometry x="226" y="283" width="60" height="40" as="geometry" />
        </mxCell>
        <mxCell id="tAiFyAOmSP42KVRrfz_7-5" value="0x4B" style="rounded=0;whiteSpace=wrap;html=1;" vertex="1" parent="1">
          <mxGeometry x="304" y="283" width="60" height="40" as="geometry" />
        </mxCell>
        <mxCell id="tAiFyAOmSP42KVRrfz_7-6" value="0x6C" style="rounded=0;whiteSpace=wrap;html=1;" vertex="1" parent="1">
          <mxGeometry x="384" y="283" width="60" height="40" as="geometry" />
        </mxCell>
        <mxCell id="tAiFyAOmSP42KVRrfz_7-7" value="0x90" style="rounded=0;whiteSpace=wrap;html=1;" vertex="1" parent="1">
          <mxGeometry x="460" y="283" width="60" height="40" as="geometry" />
        </mxCell>
        <mxCell id="tAiFyAOmSP42KVRrfz_7-8" value="0x90" style="rounded=0;whiteSpace=wrap;html=1;" vertex="1" parent="1">
          <mxGeometry x="540" y="283" width="60" height="40" as="geometry" />
        </mxCell>
        <mxCell id="tAiFyAOmSP42KVRrfz_7-10" value="" style="shape=image;verticalLabelPosition=bottom;labelBackgroundColor=#ffffff;verticalAlign=top;aspect=fixed;imageAspect=0;image=https://i.loli.net/2021/08/13/ixA8jUZBH7kM3dg.png;" vertex="1" parent="1">
          <mxGeometry x="630" y="323" width="413.3" height="337" as="geometry" />
        </mxCell>
        <mxCell id="tAiFyAOmSP42KVRrfz_7-11" value="" style="endArrow=classic;html=1;exitX=0.5;exitY=1;exitDx=0;exitDy=0;entryX=-0.002;entryY=0.199;entryDx=0;entryDy=0;entryPerimeter=0;" edge="1" parent="1" source="tAiFyAOmSP42KVRrfz_7-2" target="tAiFyAOmSP42KVRrfz_7-10">
          <mxGeometry width="50" height="50" relative="1" as="geometry">
            <mxPoint x="150" y="490" as="sourcePoint" />
            <mxPoint x="620" y="390" as="targetPoint" />
            <Array as="points">
              <mxPoint x="100" y="390" />
            </Array>
          </mxGeometry>
        </mxCell>
        <mxCell id="tAiFyAOmSP42KVRrfz_7-12" value="" style="endArrow=classic;html=1;exitX=0.5;exitY=1;exitDx=0;exitDy=0;" edge="1" parent="1">
          <mxGeometry width="50" height="50" relative="1" as="geometry">
            <mxPoint x="180" y="323" as="sourcePoint" />
            <mxPoint x="630" y="428" as="targetPoint" />
            <Array as="points">
              <mxPoint x="180" y="428" />
            </Array>
          </mxGeometry>
        </mxCell>
        <mxCell id="tAiFyAOmSP42KVRrfz_7-13" value="" style="endArrow=classic;html=1;exitX=0.5;exitY=1;exitDx=0;exitDy=0;entryX=0;entryY=0.439;entryDx=0;entryDy=0;entryPerimeter=0;" edge="1" parent="1" target="tAiFyAOmSP42KVRrfz_7-10">
          <mxGeometry width="50" height="50" relative="1" as="geometry">
            <mxPoint x="250" y="323" as="sourcePoint" />
            <mxPoint x="700" y="428" as="targetPoint" />
            <Array as="points">
              <mxPoint x="250" y="469" />
            </Array>
          </mxGeometry>
        </mxCell>
        <mxCell id="tAiFyAOmSP42KVRrfz_7-14" value="" style="endArrow=classic;html=1;exitX=0.5;exitY=1;exitDx=0;exitDy=0;" edge="1" parent="1" source="tAiFyAOmSP42KVRrfz_7-5">
          <mxGeometry width="50" height="50" relative="1" as="geometry">
            <mxPoint x="400" y="390" as="sourcePoint" />
            <mxPoint x="630" y="506" as="targetPoint" />
            <Array as="points">
              <mxPoint x="334" y="506" />
            </Array>
          </mxGeometry>
        </mxCell>
        <mxCell id="tAiFyAOmSP42KVRrfz_7-15" value="" style="endArrow=classic;html=1;exitX=0.5;exitY=1;exitDx=0;exitDy=0;" edge="1" parent="1">
          <mxGeometry width="50" height="50" relative="1" as="geometry">
            <mxPoint x="414" y="323" as="sourcePoint" />
            <mxPoint x="630" y="544" as="targetPoint" />
            <Array as="points">
              <mxPoint x="414" y="544" />
            </Array>
          </mxGeometry>
        </mxCell>
        <mxCell id="tAiFyAOmSP42KVRrfz_7-16" value="" style="endArrow=classic;html=1;exitX=0.5;exitY=1;exitDx=0;exitDy=0;entryX=0.002;entryY=0.772;entryDx=0;entryDy=0;entryPerimeter=0;" edge="1" parent="1" target="tAiFyAOmSP42KVRrfz_7-10">
          <mxGeometry width="50" height="50" relative="1" as="geometry">
            <mxPoint x="490" y="323" as="sourcePoint" />
            <mxPoint x="706" y="544" as="targetPoint" />
            <Array as="points">
              <mxPoint x="490" y="583" />
            </Array>
          </mxGeometry>
        </mxCell>
        <mxCell id="tAiFyAOmSP42KVRrfz_7-17" value="" style="endArrow=classic;html=1;exitX=0.5;exitY=1;exitDx=0;exitDy=0;" edge="1" parent="1">
          <mxGeometry width="50" height="50" relative="1" as="geometry">
            <mxPoint x="570" y="323" as="sourcePoint" />
            <mxPoint x="630" y="622" as="targetPoint" />
            <Array as="points">
              <mxPoint x="570" y="622" />
            </Array>
          </mxGeometry>
        </mxCell>
      </root>
    </mxGraphModel>
  </diagram>
</mxfile>
